<svg width="14" height="14" viewBox="0 0 14 14" fill="none" xmlns="http://www.w3.org/2000/svg">
    <path d="M13.3002 0.710689C13.1134 0.523436 12.8597 0.418203 12.5952 0.418203C12.3307 0.418203 12.077 0.523436 11.8902 0.710689L7.00022 5.59069L2.11021 0.700689C1.92338 0.513436 1.66973 0.408203 1.40521 0.408203C1.1407 0.408203 0.887046 0.513436 0.700215 0.700689C0.310215 1.09069 0.310215 1.72069 0.700215 2.11069L5.59021 7.00069L0.700215 11.8907C0.310215 12.2807 0.310215 12.9107 0.700215 13.3007C1.09021 13.6907 1.72021 13.6907 2.11021 13.3007L7.00022 8.41069L11.8902 13.3007C12.2802 13.6907 12.9102 13.6907 13.3002 13.3007C13.6902 12.9107 13.6902 12.2807 13.3002 11.8907L8.41021 7.00069L13.3002 2.11069C13.6802 1.73069 13.6802 1.09069 13.3002 0.710689Z" fill="#9E9E9E"/>
</svg>