<svg width="24" height="24" viewBox="0 0 24 24" fill="none" xmlns="http://www.w3.org/2000/svg">
<path d="M12 0C8.81774 0 5.76549 1.26429 3.51415 3.51415C1.26416 5.76521 0 8.81774 0 12C0 15.1823 1.26429 18.2345 3.51415 20.4859C5.76521 22.7358 8.81774 24 12 24C15.1823 24 18.2345 22.7357 20.4859 20.4859C22.7358 18.2348 24 15.1823 24 12C24 8.81774 22.7357 5.76549 20.4859 3.51415C18.2348 1.26416 15.1823 0 12 0ZM6 20.3487C6 18.2048 7.14322 16.2248 9.00014 15.1524C10.8569 14.0809 13.1432 14.0809 15.0001 15.1524C16.8569 16.2249 18.0003 18.2049 18.0003 20.3487C16.2549 21.6119 14.1548 22.2923 12.0003 22.2923C9.84576 22.2923 7.74528 21.6119 6 20.3487ZM19.6457 18.8573H19.5257C19.0082 16.5623 17.4729 14.6283 15.3536 13.6053C13.2353 12.5831 10.7648 12.5831 8.64645 13.6053C6.52715 14.6285 4.99186 16.5623 4.47429 18.8573H4.35429C2.57143 16.8762 1.6275 14.28 1.7207 11.6167C1.81392 8.95205 2.93785 6.42885 4.85579 4.57742C6.77373 2.72599 9.33433 1.69111 12.0001 1.69111C14.6659 1.69111 17.2266 2.7261 19.1444 4.57742C21.0622 6.42874 22.1863 8.952 22.2795 11.6167C22.3727 14.2802 21.4286 16.8764 19.6457 18.8573ZM12 3.42871C10.8632 3.42871 9.77357 3.87977 8.96996 4.68442C8.16532 5.48799 7.71426 6.57762 7.71426 7.71445C7.71426 8.85128 8.16532 9.94088 8.96996 10.7445C9.77354 11.5491 10.8632 12.0002 12 12.0002C13.1368 12.0002 14.2264 11.5491 15.03 10.7445C15.8347 9.94091 16.2857 8.85128 16.2857 7.71445C16.2857 6.57762 15.8347 5.48802 15.03 4.68442C14.2265 3.87977 13.1368 3.42871 12 3.42871ZM12 10.2859C10.9596 10.2859 10.0222 9.65905 9.62463 8.69798C9.22607 7.73798 9.44677 6.63119 10.1818 5.89616C10.9168 5.16115 12.0235 4.94043 12.9836 5.33903C13.9447 5.73652 14.5715 6.67403 14.5715 7.7144C14.5715 9.13404 13.4196 10.2859 12 10.2859Z" fill="white"/>
</svg>
